# MagicaVoxel @ Ephtracy

# group
o 

# material
mtllib Door.mtl
usemtl palette

# normals
vn -1 0 0
vn 1 0 0
vn 0 0 1
vn 0 0 -1
vn 0 -1 0
vn 0 1 0

# texcoords
vt 0.845703 0.5
vt 0.990234 0.5

# verts
v -1.9 0.1 1.6
v -1.9 0.1 0
v -1.9 1.1 0.2
v -1.9 1.1 0
v -1.9 1.2 0.3
v -1.9 1.2 0.2
v -1.9 1.3 0.4
v -1.9 1.3 0.3
v -1.9 1.7 0.4
v -1.9 1.7 0.3
v -1.9 1.8 0.3
v -1.9 1.8 0.2
v -1.9 1.9 0.2
v -1.9 1.9 0
v -1.9 2.2 1
v -1.9 2.2 0.7
v -1.9 2.3 1.1
v -1.9 2.3 1
v -1.9 2.3 0.7
v -1.9 2.3 0.6
v -1.9 2.4 1.2
v -1.9 2.4 1.1
v -1.9 2.4 1
v -1.9 2.4 0.7
v -1.9 2.4 0.6
v -1.9 2.4 0.5
v -1.9 2.7 1.2
v -1.9 2.7 1.1
v -1.9 2.7 1
v -1.9 2.7 0.7
v -1.9 2.7 0.6
v -1.9 2.7 0.5
v -1.9 2.8 1.1
v -1.9 2.8 1
v -1.9 2.8 0.7
v -1.9 2.8 0.6
v -1.9 2.9 1
v -1.9 2.9 0.7
v -1.9 3.1 1.6
v -1.9 3.1 0
v -1.7 1.4 0.2
v -1.7 1.4 0.1
v -1.7 1.6 0.2
v -1.7 1.6 0.1
v -1.8 0.4 1.4
v -1.8 0.4 1.3
v -1.8 0.4 0.9
v -1.8 0.4 0.8
v -1.8 0.4 0.3
v -1.8 0.4 0.2
v -1.8 0.5 1.4
v -1.8 0.5 1.3
v -1.8 0.5 0.9
v -1.8 0.5 0.8
v -1.8 0.5 0.3
v -1.8 0.5 0.2
v -1.8 1 1.4
v -1.8 1 1.3
v -1.8 1 0.9
v -1.8 1 0.8
v -1.8 1 0.3
v -1.8 1 0.2
v -1.8 1.1 1.4
v -1.8 1.1 1.3
v -1.8 1.1 0.9
v -1.8 1.1 0.8
v -1.8 1.1 0.3
v -1.8 1.1 0.2
v -1.8 1.1 0
v -1.8 1.2 0.3
v -1.8 1.2 0.2
v -1.8 1.3 0.4
v -1.8 1.3 0.3
v -1.8 1.3 0.2
v -1.8 1.3 0.1
v -1.8 1.4 0.2
v -1.8 1.4 0.1
v -1.8 1.6 1.4
v -1.8 1.6 1.3
v -1.8 1.6 0.9
v -1.8 1.6 0.8
v -1.8 1.6 0.2
v -1.8 1.6 0.1
v -1.8 1.7 1.4
v -1.8 1.7 1.3
v -1.8 1.7 0.9
v -1.8 1.7 0.8
v -1.8 1.7 0.4
v -1.8 1.7 0.3
v -1.8 1.7 0.2
v -1.8 1.7 0.1
v -1.8 1.8 0.3
v -1.8 1.8 0.2
v -1.8 1.9 0.2
v -1.8 1.9 0
v -1.8 2.2 1.4
v -1.8 2.2 1.3
v -1.8 2.2 1
v -1.8 2.2 0.7
v -1.8 2.2 0.4
v -1.8 2.2 0.3
v -1.8 2.3 1.4
v -1.8 2.3 1.3
v -1.8 2.3 1.1
v -1.8 2.3 1
v -1.8 2.3 0.7
v -1.8 2.3 0.6
v -1.8 2.3 0.4
v -1.8 2.3 0.3
v -1.8 2.4 1.2
v -1.8 2.4 1.1
v -1.8 2.4 1
v -1.8 2.4 0.7
v -1.8 2.4 0.6
v -1.8 2.4 0.5
v -1.8 2.7 1.2
v -1.8 2.7 1.1
v -1.8 2.7 1
v -1.8 2.7 0.7
v -1.8 2.7 0.6
v -1.8 2.7 0.5
v -1.8 2.8 1.4
v -1.8 2.8 1.3
v -1.8 2.8 1.1
v -1.8 2.8 1
v -1.8 2.8 0.7
v -1.8 2.8 0.6
v -1.8 2.8 0.4
v -1.8 2.8 0.3
v -1.8 2.9 1.4
v -1.8 2.9 1.3
v -1.8 2.9 1
v -1.8 2.9 0.7
v -1.8 2.9 0.4
v -1.8 2.9 0.3
v -1.7 0.1 1.6
v -1.7 0.1 0
v -1.7 0.4 1.4
v -1.7 0.4 1.3
v -1.7 0.4 0.9
v -1.7 0.4 0.8
v -1.7 0.4 0.3
v -1.7 0.4 0.2
v -1.7 0.5 1.4
v -1.7 0.5 1.3
v -1.7 0.5 0.9
v -1.7 0.5 0.8
v -1.7 0.5 0.3
v -1.7 0.5 0.2
v -1.7 1 1.4
v -1.7 1 1.3
v -1.7 1 0.9
v -1.7 1 0.8
v -1.7 1 0.3
v -1.7 1 0.2
v -1.7 1.1 1.4
v -1.7 1.1 1.3
v -1.7 1.1 0.9
v -1.7 1.1 0.8
v -1.7 1.1 0.3
v -1.7 1.1 0.2
v -1.7 1.1 0
v -1.7 1.2 0.3
v -1.7 1.2 0.2
v -1.7 1.3 0.4
v -1.7 1.3 0.3
v -1.7 1.6 1.4
v -1.7 1.6 1.3
v -1.7 1.6 0.9
v -1.7 1.6 0.8
v -1.7 1.7 1.4
v -1.7 1.7 1.3
v -1.7 1.7 0.9
v -1.7 1.7 0.8
v -1.7 1.7 0.4
v -1.7 1.7 0.3
v -1.7 1.8 0.3
v -1.7 1.8 0.2
v -1.7 1.9 0.2
v -1.7 1.9 0
v -1.7 2.2 1.4
v -1.7 2.2 1.3
v -1.7 2.2 1
v -1.7 2.2 0.7
v -1.7 2.2 0.4
v -1.7 2.2 0.3
v -1.7 2.3 1.4
v -1.7 2.3 1.3
v -1.7 2.3 1.1
v -1.7 2.3 1
v -1.7 2.3 0.7
v -1.7 2.3 0.6
v -1.7 2.3 0.4
v -1.7 2.3 0.3
v -1.7 2.4 1.2
v -1.7 2.4 1.1
v -1.7 2.4 0.6
v -1.7 2.4 0.5
v -1.7 2.7 1.2
v -1.7 2.7 1.1
v -1.7 2.7 0.6
v -1.7 2.7 0.5
v -1.7 2.8 1.4
v -1.7 2.8 1.3
v -1.7 2.8 1.1
v -1.7 2.8 1
v -1.7 2.8 0.7
v -1.7 2.8 0.6
v -1.7 2.8 0.4
v -1.7 2.8 0.3
v -1.7 2.9 1.4
v -1.7 2.9 1.3
v -1.7 2.9 1
v -1.7 2.9 0.7
v -1.7 2.9 0.4
v -1.7 2.9 0.3
v -1.7 3.1 1.6
v -1.7 3.1 0
v -1.6 1.3 0.2
v -1.6 1.3 0.1
v -1.6 1.7 0.2
v -1.6 1.7 0.1
v -1.9 0.1 1.6
v -1.9 3.1 1.6
v -1.7 0.1 1.6
v -1.7 3.1 1.6
v -1.8 0.4 1.3
v -1.8 0.5 1.3
v -1.8 1 1.3
v -1.8 1.1 1.3
v -1.8 1.6 1.3
v -1.8 1.7 1.3
v -1.8 2.2 1.3
v -1.8 2.3 1.3
v -1.8 2.8 1.3
v -1.8 2.9 1.3
v -1.7 0.4 1.3
v -1.7 0.5 1.3
v -1.7 1 1.3
v -1.7 1.1 1.3
v -1.7 1.6 1.3
v -1.7 1.7 1.3
v -1.7 2.2 1.3
v -1.7 2.3 1.3
v -1.7 2.8 1.3
v -1.7 2.9 1.3
v -1.8 0.4 0.8
v -1.8 0.5 0.8
v -1.8 1 0.8
v -1.8 1.1 0.8
v -1.8 1.6 0.8
v -1.8 1.7 0.8
v -1.7 0.4 0.8
v -1.7 0.5 0.8
v -1.7 1 0.8
v -1.7 1.1 0.8
v -1.7 1.6 0.8
v -1.7 1.7 0.8
v -1.9 2.3 0.7
v -1.9 2.4 0.7
v -1.9 2.7 0.7
v -1.9 2.8 0.7
v -1.8 2.2 0.7
v -1.8 2.3 0.7
v -1.8 2.4 0.7
v -1.8 2.7 0.7
v -1.8 2.8 0.7
v -1.8 2.9 0.7
v -1.7 2.2 0.7
v -1.7 2.3 0.7
v -1.7 2.8 0.7
v -1.7 2.9 0.7
v -1.9 2.4 0.6
v -1.9 2.7 0.6
v -1.8 2.3 0.6
v -1.8 2.4 0.6
v -1.8 2.7 0.6
v -1.8 2.8 0.6
v -1.7 2.3 0.6
v -1.7 2.4 0.6
v -1.7 2.7 0.6
v -1.7 2.8 0.6
v -1.8 2.4 0.5
v -1.8 2.7 0.5
v -1.7 2.4 0.5
v -1.7 2.7 0.5
v -1.8 2.2 0.3
v -1.8 2.3 0.3
v -1.8 2.8 0.3
v -1.8 2.9 0.3
v -1.7 2.2 0.3
v -1.7 2.3 0.3
v -1.7 2.8 0.3
v -1.7 2.9 0.3
v -1.8 0.4 0.2
v -1.8 0.5 0.2
v -1.8 1 0.2
v -1.8 1.1 0.2
v -1.8 1.3 0.2
v -1.8 1.4 0.2
v -1.8 1.6 0.2
v -1.8 1.7 0.2
v -1.7 0.4 0.2
v -1.7 0.5 0.2
v -1.7 1 0.2
v -1.7 1.1 0.2
v -1.7 1.4 0.2
v -1.7 1.6 0.2
v -1.6 1.3 0.2
v -1.6 1.7 0.2
v -1.8 0.4 1.4
v -1.8 0.5 1.4
v -1.8 1 1.4
v -1.8 1.1 1.4
v -1.8 1.6 1.4
v -1.8 1.7 1.4
v -1.8 2.2 1.4
v -1.8 2.3 1.4
v -1.8 2.8 1.4
v -1.8 2.9 1.4
v -1.7 0.4 1.4
v -1.7 0.5 1.4
v -1.7 1 1.4
v -1.7 1.1 1.4
v -1.7 1.6 1.4
v -1.7 1.7 1.4
v -1.7 2.2 1.4
v -1.7 2.3 1.4
v -1.7 2.8 1.4
v -1.7 2.9 1.4
v -1.8 2.4 1.2
v -1.8 2.7 1.2
v -1.7 2.4 1.2
v -1.7 2.7 1.2
v -1.9 2.4 1.1
v -1.9 2.7 1.1
v -1.8 2.3 1.1
v -1.8 2.4 1.1
v -1.8 2.7 1.1
v -1.8 2.8 1.1
v -1.7 2.3 1.1
v -1.7 2.4 1.1
v -1.7 2.7 1.1
v -1.7 2.8 1.1
v -1.9 2.3 1
v -1.9 2.4 1
v -1.9 2.7 1
v -1.9 2.8 1
v -1.8 2.2 1
v -1.8 2.3 1
v -1.8 2.4 1
v -1.8 2.7 1
v -1.8 2.8 1
v -1.8 2.9 1
v -1.7 2.2 1
v -1.7 2.3 1
v -1.7 2.8 1
v -1.7 2.9 1
v -1.8 0.4 0.9
v -1.8 0.5 0.9
v -1.8 1 0.9
v -1.8 1.1 0.9
v -1.8 1.6 0.9
v -1.8 1.7 0.9
v -1.7 0.4 0.9
v -1.7 0.5 0.9
v -1.7 1 0.9
v -1.7 1.1 0.9
v -1.7 1.6 0.9
v -1.7 1.7 0.9
v -1.8 1.3 0.4
v -1.8 1.7 0.4
v -1.8 2.2 0.4
v -1.8 2.3 0.4
v -1.8 2.8 0.4
v -1.8 2.9 0.4
v -1.7 1.3 0.4
v -1.7 1.7 0.4
v -1.7 2.2 0.4
v -1.7 2.3 0.4
v -1.7 2.8 0.4
v -1.7 2.9 0.4
v -1.8 0.4 0.3
v -1.8 0.5 0.3
v -1.8 1 0.3
v -1.8 1.1 0.3
v -1.8 1.2 0.3
v -1.8 1.3 0.3
v -1.8 1.7 0.3
v -1.8 1.8 0.3
v -1.7 0.4 0.3
v -1.7 0.5 0.3
v -1.7 1 0.3
v -1.7 1.1 0.3
v -1.7 1.2 0.3
v -1.7 1.3 0.3
v -1.7 1.7 0.3
v -1.7 1.8 0.3
v -1.8 1.1 0.2
v -1.8 1.2 0.2
v -1.8 1.8 0.2
v -1.8 1.9 0.2
v -1.7 1.1 0.2
v -1.7 1.2 0.2
v -1.7 1.8 0.2
v -1.7 1.9 0.2
v -1.8 1.3 0.1
v -1.8 1.4 0.1
v -1.8 1.6 0.1
v -1.8 1.7 0.1
v -1.7 1.4 0.1
v -1.7 1.6 0.1
v -1.6 1.3 0.1
v -1.6 1.7 0.1
v -1.9 0.1 0
v -1.9 1.1 0
v -1.9 1.9 0
v -1.9 3.1 0
v -1.8 1.1 0
v -1.8 1.9 0
v -1.7 0.1 0
v -1.7 1.1 0
v -1.7 1.9 0
v -1.7 3.1 0
v -1.9 0.1 1.6
v -1.7 0.1 1.6
v -1.9 0.1 0
v -1.7 0.1 0
v -1.8 0.5 1.4
v -1.7 0.5 1.4
v -1.8 0.5 1.3
v -1.7 0.5 1.3
v -1.8 0.5 0.9
v -1.7 0.5 0.9
v -1.8 0.5 0.8
v -1.7 0.5 0.8
v -1.8 0.5 0.3
v -1.7 0.5 0.3
v -1.8 0.5 0.2
v -1.7 0.5 0.2
v -1.8 1.1 1.4
v -1.7 1.1 1.4
v -1.8 1.1 1.3
v -1.7 1.1 1.3
v -1.8 1.1 0.9
v -1.7 1.1 0.9
v -1.8 1.1 0.8
v -1.7 1.1 0.8
v -1.8 1.1 0.3
v -1.7 1.1 0.3
v -1.8 1.1 0.2
v -1.7 1.1 0.2
v -1.8 1.3 0.2
v -1.6 1.3 0.2
v -1.8 1.3 0.1
v -1.6 1.3 0.1
v -1.8 1.6 0.2
v -1.7 1.6 0.2
v -1.8 1.6 0.1
v -1.7 1.6 0.1
v -1.8 1.7 1.4
v -1.7 1.7 1.4
v -1.8 1.7 1.3
v -1.7 1.7 1.3
v -1.8 1.7 0.9
v -1.7 1.7 0.9
v -1.8 1.7 0.8
v -1.7 1.7 0.8
v -1.8 1.7 0.4
v -1.7 1.7 0.4
v -1.8 1.7 0.3
v -1.7 1.7 0.3
v -1.8 1.8 0.3
v -1.7 1.8 0.3
v -1.8 1.8 0.2
v -1.7 1.8 0.2
v -1.8 1.9 0.2
v -1.7 1.9 0.2
v -1.8 1.9 0
v -1.7 1.9 0
v -1.8 2.3 1.4
v -1.7 2.3 1.4
v -1.8 2.3 1.3
v -1.7 2.3 1.3
v -1.8 2.3 0.4
v -1.7 2.3 0.4
v -1.8 2.3 0.3
v -1.7 2.3 0.3
v -1.8 2.7 1.2
v -1.7 2.7 1.2
v -1.9 2.7 1.1
v -1.8 2.7 1.1
v -1.7 2.7 1.1
v -1.9 2.7 1
v -1.8 2.7 1
v -1.9 2.7 0.7
v -1.8 2.7 0.7
v -1.9 2.7 0.6
v -1.8 2.7 0.6
v -1.7 2.7 0.6
v -1.8 2.7 0.5
v -1.7 2.7 0.5
v -1.8 2.8 1.1
v -1.7 2.8 1.1
v -1.9 2.8 1
v -1.8 2.8 1
v -1.7 2.8 1
v -1.9 2.8 0.7
v -1.8 2.8 0.7
v -1.7 2.8 0.7
v -1.8 2.8 0.6
v -1.7 2.8 0.6
v -1.8 2.9 1.4
v -1.7 2.9 1.4
v -1.8 2.9 1.3
v -1.7 2.9 1.3
v -1.8 2.9 1
v -1.7 2.9 1
v -1.8 2.9 0.7
v -1.7 2.9 0.7
v -1.8 2.9 0.4
v -1.7 2.9 0.4
v -1.8 2.9 0.3
v -1.7 2.9 0.3
v -1.8 0.4 1.4
v -1.7 0.4 1.4
v -1.8 0.4 1.3
v -1.7 0.4 1.3
v -1.8 0.4 0.9
v -1.7 0.4 0.9
v -1.8 0.4 0.8
v -1.7 0.4 0.8
v -1.8 0.4 0.3
v -1.7 0.4 0.3
v -1.8 0.4 0.2
v -1.7 0.4 0.2
v -1.8 1 1.4
v -1.7 1 1.4
v -1.8 1 1.3
v -1.7 1 1.3
v -1.8 1 0.9
v -1.7 1 0.9
v -1.8 1 0.8
v -1.7 1 0.8
v -1.8 1 0.3
v -1.7 1 0.3
v -1.8 1 0.2
v -1.7 1 0.2
v -1.8 1.1 0.2
v -1.7 1.1 0.2
v -1.8 1.1 0
v -1.7 1.1 0
v -1.8 1.2 0.3
v -1.7 1.2 0.3
v -1.8 1.2 0.2
v -1.7 1.2 0.2
v -1.8 1.3 0.4
v -1.7 1.3 0.4
v -1.8 1.3 0.3
v -1.7 1.3 0.3
v -1.8 1.4 0.2
v -1.7 1.4 0.2
v -1.8 1.4 0.1
v -1.7 1.4 0.1
v -1.8 1.6 1.4
v -1.7 1.6 1.4
v -1.8 1.6 1.3
v -1.7 1.6 1.3
v -1.8 1.6 0.9
v -1.7 1.6 0.9
v -1.8 1.6 0.8
v -1.7 1.6 0.8
v -1.8 1.7 0.2
v -1.6 1.7 0.2
v -1.8 1.7 0.1
v -1.6 1.7 0.1
v -1.8 2.2 1.4
v -1.7 2.2 1.4
v -1.8 2.2 1.3
v -1.7 2.2 1.3
v -1.8 2.2 1
v -1.7 2.2 1
v -1.8 2.2 0.7
v -1.7 2.2 0.7
v -1.8 2.2 0.4
v -1.7 2.2 0.4
v -1.8 2.2 0.3
v -1.7 2.2 0.3
v -1.8 2.3 1.1
v -1.7 2.3 1.1
v -1.9 2.3 1
v -1.8 2.3 1
v -1.7 2.3 1
v -1.9 2.3 0.7
v -1.8 2.3 0.7
v -1.7 2.3 0.7
v -1.8 2.3 0.6
v -1.7 2.3 0.6
v -1.8 2.4 1.2
v -1.7 2.4 1.2
v -1.9 2.4 1.1
v -1.8 2.4 1.1
v -1.7 2.4 1.1
v -1.9 2.4 1
v -1.8 2.4 1
v -1.9 2.4 0.7
v -1.8 2.4 0.7
v -1.9 2.4 0.6
v -1.8 2.4 0.6
v -1.7 2.4 0.6
v -1.8 2.4 0.5
v -1.7 2.4 0.5
v -1.8 2.8 1.4
v -1.7 2.8 1.4
v -1.8 2.8 1.3
v -1.7 2.8 1.3
v -1.8 2.8 0.4
v -1.7 2.8 0.4
v -1.8 2.8 0.3
v -1.7 2.8 0.3
v -1.9 3.1 1.6
v -1.7 3.1 1.6
v -1.9 3.1 0
v -1.7 3.1 0

# faces
f 3/2/1 2/2/1 1/2/1
f 4/2/1 2/2/1 3/2/1
f 5/2/1 3/2/1 1/2/1
f 6/1/1 4/1/1 3/1/1
f 6/2/1 3/2/1 5/2/1
f 7/2/1 5/2/1 1/2/1
f 8/1/1 6/1/1 5/1/1
f 8/2/1 5/2/1 7/2/1
f 9/2/1 7/2/1 1/2/1
f 9/1/1 8/1/1 7/1/1
f 10/1/1 6/1/1 8/1/1
f 10/1/1 8/1/1 9/1/1
f 11/2/1 10/2/1 9/2/1
f 11/1/1 6/1/1 10/1/1
f 12/1/1 4/1/1 6/1/1
f 12/1/1 6/1/1 11/1/1
f 13/2/1 12/2/1 11/2/1
f 13/1/1 4/1/1 12/1/1
f 14/1/1 4/1/1 13/1/1
f 15/2/1 11/2/1 9/2/1
f 15/2/1 9/2/1 1/2/1
f 15/2/1 14/2/1 13/2/1
f 15/2/1 13/2/1 11/2/1
f 16/2/1 14/2/1 15/2/1
f 17/2/1 15/2/1 1/2/1
f 18/1/1 16/1/1 15/1/1
f 18/2/1 15/2/1 17/2/1
f 19/2/1 14/2/1 16/2/1
f 19/1/1 16/1/1 18/1/1
f 20/2/1 14/2/1 19/2/1
f 21/2/1 17/2/1 1/2/1
f 22/1/1 18/1/1 17/1/1
f 22/2/1 17/2/1 21/2/1
f 23/1/1 18/1/1 22/1/1
f 24/1/1 20/1/1 19/1/1
f 25/2/1 14/2/1 20/2/1
f 25/1/1 20/1/1 24/1/1
f 26/2/1 14/2/1 25/2/1
f 27/2/1 21/2/1 1/2/1
f 27/1/1 22/1/1 21/1/1
f 28/1/1 22/1/1 27/1/1
f 31/1/1 26/1/1 25/1/1
f 32/2/1 14/2/1 26/2/1
f 32/1/1 26/1/1 31/1/1
f 33/1/1 29/1/1 28/1/1
f 33/2/1 28/2/1 27/2/1
f 34/1/1 29/1/1 33/1/1
f 35/1/1 31/1/1 30/1/1
f 36/2/1 32/2/1 31/2/1
f 36/1/1 31/1/1 35/1/1
f 37/2/1 34/2/1 33/2/1
f 37/1/1 35/1/1 34/1/1
f 38/2/1 36/2/1 35/2/1
f 38/1/1 35/1/1 37/1/1
f 39/2/1 27/2/1 1/2/1
f 39/2/1 37/2/1 33/2/1
f 39/2/1 38/2/1 37/2/1
f 39/2/1 33/2/1 27/2/1
f 40/2/1 32/2/1 36/2/1
f 40/2/1 38/2/1 39/2/1
f 40/2/1 14/2/1 32/2/1
f 40/2/1 36/2/1 38/2/1
f 43/1/1 42/1/1 41/1/1
f 44/1/1 42/1/1 43/1/1
f 45/2/2 46/2/2 51/2/2
f 51/2/2 46/2/2 52/2/2
f 47/2/2 48/2/2 53/2/2
f 53/2/2 48/2/2 54/2/2
f 49/2/2 50/2/2 55/2/2
f 55/2/2 50/2/2 56/2/2
f 57/2/2 58/2/2 63/2/2
f 63/2/2 58/2/2 64/2/2
f 59/2/2 60/2/2 65/2/2
f 65/2/2 60/2/2 66/2/2
f 61/2/2 62/2/2 67/2/2
f 67/2/2 62/2/2 68/2/2
f 68/1/2 69/1/2 71/1/2
f 70/1/2 71/1/2 73/1/2
f 71/1/2 69/1/2 74/1/2
f 73/1/2 71/1/2 74/1/2
f 74/1/2 69/1/2 75/1/2
f 72/1/2 73/1/2 76/1/2
f 73/1/2 74/1/2 76/1/2
f 75/1/2 69/1/2 77/1/2
f 72/1/2 76/1/2 82/1/2
f 76/1/2 77/1/2 82/1/2
f 77/1/2 69/1/2 83/1/2
f 82/1/2 77/1/2 83/1/2
f 78/2/2 79/2/2 84/2/2
f 84/2/2 79/2/2 85/2/2
f 80/2/2 81/2/2 86/2/2
f 86/2/2 81/2/2 87/2/2
f 72/1/2 82/1/2 88/1/2
f 88/1/2 82/1/2 89/1/2
f 89/1/2 82/1/2 90/1/2
f 83/1/2 69/1/2 91/1/2
f 90/1/2 91/1/2 92/1/2
f 89/1/2 90/1/2 92/1/2
f 92/1/2 91/1/2 93/1/2
f 93/1/2 91/1/2 94/1/2
f 91/1/2 69/1/2 95/1/2
f 94/1/2 91/1/2 95/1/2
f 96/2/2 97/2/2 102/2/2
f 102/2/2 97/2/2 103/2/2
f 98/1/2 99/1/2 105/1/2
f 105/1/2 99/1/2 106/1/2
f 100/2/2 101/2/2 108/2/2
f 108/2/2 101/2/2 109/2/2
f 104/1/2 105/1/2 111/1/2
f 111/1/2 105/1/2 112/1/2
f 106/1/2 107/1/2 113/1/2
f 113/1/2 107/1/2 114/1/2
f 110/1/2 111/1/2 116/1/2
f 116/1/2 111/1/2 117/1/2
f 114/1/2 115/1/2 120/1/2
f 120/1/2 115/1/2 121/1/2
f 117/1/2 118/1/2 124/1/2
f 124/1/2 118/1/2 125/1/2
f 119/1/2 120/1/2 126/1/2
f 126/1/2 120/1/2 127/1/2
f 122/2/2 123/2/2 130/2/2
f 130/2/2 123/2/2 131/2/2
f 125/1/2 126/1/2 132/1/2
f 132/1/2 126/1/2 133/1/2
f 128/2/2 129/2/2 134/2/2
f 134/2/2 129/2/2 135/2/2
f 136/2/2 137/2/2 138/2/2
f 138/2/2 137/2/2 139/2/2
f 139/2/2 137/2/2 140/2/2
f 140/2/2 137/2/2 141/2/2
f 141/2/2 137/2/2 142/2/2
f 142/2/2 137/2/2 143/2/2
f 136/2/2 138/2/2 144/2/2
f 139/2/2 140/2/2 145/2/2
f 145/2/2 140/2/2 146/2/2
f 141/2/2 142/2/2 147/2/2
f 147/2/2 142/2/2 148/2/2
f 143/2/2 137/2/2 149/2/2
f 147/2/2 148/2/2 150/2/2
f 148/2/2 149/2/2 150/2/2
f 145/2/2 146/2/2 150/2/2
f 136/2/2 144/2/2 150/2/2
f 146/2/2 147/2/2 150/2/2
f 144/2/2 145/2/2 150/2/2
f 150/2/2 149/2/2 151/2/2
f 151/2/2 149/2/2 152/2/2
f 152/2/2 149/2/2 153/2/2
f 153/2/2 149/2/2 154/2/2
f 149/2/2 137/2/2 155/2/2
f 154/2/2 149/2/2 155/2/2
f 136/2/2 150/2/2 156/2/2
f 151/2/2 152/2/2 157/2/2
f 157/2/2 152/2/2 158/2/2
f 153/2/2 154/2/2 159/2/2
f 159/2/2 154/2/2 160/2/2
f 155/2/2 137/2/2 161/2/2
f 161/2/2 137/2/2 162/2/2
f 157/2/2 158/2/2 163/2/2
f 159/2/2 160/2/2 163/2/2
f 160/2/2 161/2/2 163/2/2
f 156/2/2 157/2/2 163/2/2
f 158/2/2 159/2/2 163/2/2
f 163/2/2 161/2/2 164/2/2
f 156/2/2 163/2/2 165/2/2
f 165/2/2 163/2/2 166/2/2
f 136/2/2 156/2/2 167/2/2
f 156/2/2 165/2/2 167/2/2
f 167/2/2 165/2/2 168/2/2
f 168/2/2 165/2/2 169/2/2
f 169/2/2 165/2/2 170/2/2
f 136/2/2 167/2/2 171/2/2
f 168/2/2 169/2/2 172/2/2
f 172/2/2 169/2/2 173/2/2
f 170/2/2 165/2/2 174/2/2
f 174/2/2 165/2/2 175/2/2
f 172/2/2 173/2/2 177/2/2
f 175/2/2 176/2/2 177/2/2
f 174/2/2 175/2/2 177/2/2
f 173/2/2 174/2/2 177/2/2
f 171/2/2 172/2/2 177/2/2
f 177/2/2 178/2/2 179/2/2
f 171/2/2 177/2/2 181/2/2
f 179/2/2 180/2/2 181/2/2
f 177/2/2 179/2/2 181/2/2
f 136/2/2 171/2/2 181/2/2
f 181/2/2 180/2/2 182/2/2
f 182/2/2 180/2/2 183/2/2
f 183/2/2 180/2/2 184/2/2
f 184/2/2 180/2/2 185/2/2
f 185/2/2 180/2/2 186/2/2
f 136/2/2 181/2/2 187/2/2
f 182/2/2 183/2/2 188/2/2
f 188/2/2 183/2/2 189/2/2
f 189/2/2 183/2/2 190/2/2
f 184/2/2 185/2/2 191/2/2
f 191/2/2 185/2/2 192/2/2
f 192/2/2 185/2/2 193/2/2
f 186/2/2 180/2/2 194/2/2
f 187/2/2 188/2/2 195/2/2
f 188/2/2 189/2/2 195/2/2
f 195/2/2 189/2/2 196/2/2
f 192/2/2 193/2/2 197/2/2
f 193/2/2 194/2/2 197/2/2
f 197/2/2 194/2/2 198/2/2
f 187/2/2 195/2/2 199/2/2
f 198/2/2 194/2/2 202/2/2
f 199/2/2 200/2/2 203/2/2
f 136/2/2 187/2/2 203/2/2
f 187/2/2 199/2/2 203/2/2
f 203/2/2 200/2/2 204/2/2
f 204/2/2 200/2/2 205/2/2
f 201/2/2 202/2/2 208/2/2
f 202/2/2 194/2/2 209/2/2
f 208/2/2 202/2/2 209/2/2
f 194/2/2 180/2/2 210/2/2
f 209/2/2 194/2/2 210/2/2
f 136/2/2 203/2/2 211/2/2
f 205/2/2 206/2/2 212/2/2
f 204/2/2 205/2/2 212/2/2
f 212/2/2 206/2/2 213/2/2
f 207/2/2 208/2/2 214/2/2
f 208/2/2 209/2/2 214/2/2
f 214/2/2 209/2/2 215/2/2
f 210/2/2 180/2/2 216/2/2
f 136/2/2 211/2/2 217/2/2
f 215/2/2 216/2/2 217/2/2
f 212/2/2 213/2/2 217/2/2
f 211/2/2 212/2/2 217/2/2
f 213/2/2 214/2/2 217/2/2
f 214/2/2 215/2/2 217/2/2
f 216/2/2 180/2/2 218/2/2
f 217/2/2 216/2/2 218/2/2
f 219/1/2 220/1/2 221/1/2
f 221/1/2 220/1/2 222/1/2
f 225/2/3 224/2/3 223/2/3
f 226/2/3 224/2/3 225/2/3
f 237/2/3 228/2/3 227/2/3
f 238/2/3 228/2/3 237/2/3
f 239/2/3 230/2/3 229/2/3
f 240/2/3 230/2/3 239/2/3
f 241/2/3 232/2/3 231/2/3
f 242/2/3 232/2/3 241/2/3
f 243/2/3 234/2/3 233/2/3
f 244/2/3 234/2/3 243/2/3
f 245/2/3 236/2/3 235/2/3
f 246/2/3 236/2/3 245/2/3
f 253/2/3 248/2/3 247/2/3
f 254/2/3 248/2/3 253/2/3
f 255/2/3 250/2/3 249/2/3
f 256/2/3 250/2/3 255/2/3
f 257/2/3 252/2/3 251/2/3
f 258/2/3 252/2/3 257/2/3
f 264/1/3 260/1/3 259/1/3
f 265/1/3 260/1/3 264/1/3
f 266/1/3 262/1/3 261/1/3
f 267/1/3 262/1/3 266/1/3
f 269/2/3 264/2/3 263/2/3
f 270/2/3 264/2/3 269/2/3
f 271/2/3 268/2/3 267/2/3
f 272/2/3 268/2/3 271/2/3
f 276/1/3 274/1/3 273/1/3
f 277/1/3 274/1/3 276/1/3
f 279/2/3 276/2/3 275/2/3
f 280/2/3 276/2/3 279/2/3
f 281/2/3 278/2/3 277/2/3
f 282/2/3 278/2/3 281/2/3
f 285/2/3 284/2/3 283/2/3
f 286/2/3 284/2/3 285/2/3
f 291/2/3 288/2/3 287/2/3
f 292/2/3 288/2/3 291/2/3
f 293/2/3 290/2/3 289/2/3
f 294/2/3 290/2/3 293/2/3
f 303/2/3 296/2/3 295/2/3
f 304/2/3 296/2/3 303/2/3
f 305/2/3 298/2/3 297/2/3
f 306/2/3 298/2/3 305/2/3
f 307/1/3 300/1/3 299/1/3
f 308/1/3 302/1/3 301/1/3
f 309/1/3 307/1/3 299/1/3
f 309/1/3 308/1/3 307/1/3
f 310/1/3 302/1/3 308/1/3
f 310/1/3 308/1/3 309/1/3
f 311/2/4 312/2/4 321/2/4
f 321/2/4 312/2/4 322/2/4
f 313/2/4 314/2/4 323/2/4
f 323/2/4 314/2/4 324/2/4
f 315/2/4 316/2/4 325/2/4
f 325/2/4 316/2/4 326/2/4
f 317/2/4 318/2/4 327/2/4
f 327/2/4 318/2/4 328/2/4
f 319/2/4 320/2/4 329/2/4
f 329/2/4 320/2/4 330/2/4
f 331/2/4 332/2/4 333/2/4
f 333/2/4 332/2/4 334/2/4
f 335/1/4 336/1/4 338/1/4
f 338/1/4 336/1/4 339/1/4
f 337/2/4 338/2/4 341/2/4
f 341/2/4 338/2/4 342/2/4
f 339/2/4 340/2/4 343/2/4
f 343/2/4 340/2/4 344/2/4
f 345/1/4 346/1/4 350/1/4
f 350/1/4 346/1/4 351/1/4
f 347/1/4 348/1/4 352/1/4
f 352/1/4 348/1/4 353/1/4
f 349/2/4 350/2/4 355/2/4
f 355/2/4 350/2/4 356/2/4
f 353/2/4 354/2/4 357/2/4
f 357/2/4 354/2/4 358/2/4
f 359/2/4 360/2/4 365/2/4
f 365/2/4 360/2/4 366/2/4
f 361/2/4 362/2/4 367/2/4
f 367/2/4 362/2/4 368/2/4
f 363/2/4 364/2/4 369/2/4
f 369/2/4 364/2/4 370/2/4
f 371/2/4 372/2/4 377/2/4
f 377/2/4 372/2/4 378/2/4
f 373/2/4 374/2/4 379/2/4
f 379/2/4 374/2/4 380/2/4
f 375/2/4 376/2/4 381/2/4
f 381/2/4 376/2/4 382/2/4
f 383/2/4 384/2/4 391/2/4
f 391/2/4 384/2/4 392/2/4
f 385/2/4 386/2/4 393/2/4
f 393/2/4 386/2/4 394/2/4
f 387/2/4 388/2/4 395/2/4
f 395/2/4 388/2/4 396/2/4
f 389/2/4 390/2/4 397/2/4
f 397/2/4 390/2/4 398/2/4
f 399/2/4 400/2/4 403/2/4
f 403/2/4 400/2/4 404/2/4
f 401/2/4 402/2/4 405/2/4
f 405/2/4 402/2/4 406/2/4
f 407/1/4 408/1/4 411/1/4
f 409/1/4 410/1/4 412/1/4
f 407/1/4 411/1/4 413/1/4
f 411/1/4 412/1/4 413/1/4
f 412/1/4 410/1/4 414/1/4
f 413/1/4 412/1/4 414/1/4
f 415/2/4 416/2/4 419/2/4
f 416/1/4 417/1/4 419/1/4
f 417/2/4 418/2/4 420/2/4
f 419/1/4 417/1/4 420/1/4
f 415/2/4 419/2/4 421/2/4
f 421/2/4 419/2/4 422/2/4
f 420/2/4 418/2/4 423/2/4
f 423/2/4 418/2/4 424/2/4
f 427/2/5 426/2/5 425/2/5
f 428/2/5 426/2/5 427/2/5
f 431/2/5 430/2/5 429/2/5
f 432/2/5 430/2/5 431/2/5
f 435/2/5 434/2/5 433/2/5
f 436/2/5 434/2/5 435/2/5
f 439/2/5 438/2/5 437/2/5
f 440/2/5 438/2/5 439/2/5
f 443/2/5 442/2/5 441/2/5
f 444/2/5 442/2/5 443/2/5
f 447/2/5 446/2/5 445/2/5
f 448/2/5 446/2/5 447/2/5
f 451/2/5 450/2/5 449/2/5
f 452/2/5 450/2/5 451/2/5
f 455/1/5 454/1/5 453/1/5
f 456/1/5 454/1/5 455/1/5
f 459/1/5 458/1/5 457/1/5
f 460/1/5 458/1/5 459/1/5
f 463/2/5 462/2/5 461/2/5
f 464/2/5 462/2/5 463/2/5
f 467/2/5 466/2/5 465/2/5
f 468/2/5 466/2/5 467/2/5
f 471/2/5 470/2/5 469/2/5
f 472/2/5 470/2/5 471/2/5
f 475/2/5 474/2/5 473/2/5
f 476/2/5 474/2/5 475/2/5
f 479/2/5 478/2/5 477/2/5
f 480/2/5 478/2/5 479/2/5
f 483/2/5 482/2/5 481/2/5
f 484/2/5 482/2/5 483/2/5
f 487/2/5 486/2/5 485/2/5
f 488/2/5 486/2/5 487/2/5
f 492/2/5 490/2/5 489/2/5
f 493/2/5 490/2/5 492/2/5
f 494/1/5 492/1/5 491/1/5
f 495/1/5 492/1/5 494/1/5
f 498/1/5 497/1/5 496/1/5
f 499/1/5 497/1/5 498/1/5
f 501/2/5 500/2/5 499/2/5
f 502/2/5 500/2/5 501/2/5
f 506/2/5 504/2/5 503/2/5
f 507/2/5 504/2/5 506/2/5
f 508/1/5 506/1/5 505/1/5
f 509/1/5 506/1/5 508/1/5
f 511/2/5 510/2/5 509/2/5
f 512/2/5 510/2/5 511/2/5
f 515/2/5 514/2/5 513/2/5
f 516/2/5 514/2/5 515/2/5
f 519/2/5 518/2/5 517/2/5
f 520/2/5 518/2/5 519/2/5
f 523/2/5 522/2/5 521/2/5
f 524/2/5 522/2/5 523/2/5
f 525/2/6 526/2/6 527/2/6
f 527/2/6 526/2/6 528/2/6
f 529/2/6 530/2/6 531/2/6
f 531/2/6 530/2/6 532/2/6
f 533/2/6 534/2/6 535/2/6
f 535/2/6 534/2/6 536/2/6
f 537/2/6 538/2/6 539/2/6
f 539/2/6 538/2/6 540/2/6
f 541/2/6 542/2/6 543/2/6
f 543/2/6 542/2/6 544/2/6
f 545/2/6 546/2/6 547/2/6
f 547/2/6 546/2/6 548/2/6
f 549/2/6 550/2/6 551/2/6
f 551/2/6 550/2/6 552/2/6
f 553/2/6 554/2/6 555/2/6
f 555/2/6 554/2/6 556/2/6
f 557/2/6 558/2/6 559/2/6
f 559/2/6 558/2/6 560/2/6
f 561/1/6 562/1/6 563/1/6
f 563/1/6 562/1/6 564/1/6
f 565/2/6 566/2/6 567/2/6
f 567/2/6 566/2/6 568/2/6
f 569/2/6 570/2/6 571/2/6
f 571/2/6 570/2/6 572/2/6
f 573/1/6 574/1/6 575/1/6
f 575/1/6 574/1/6 576/1/6
f 577/2/6 578/2/6 579/2/6
f 579/2/6 578/2/6 580/2/6
f 581/2/6 582/2/6 583/2/6
f 583/2/6 582/2/6 584/2/6
f 585/2/6 586/2/6 587/2/6
f 587/2/6 586/2/6 588/2/6
f 589/2/6 590/2/6 592/2/6
f 592/2/6 590/2/6 593/2/6
f 591/1/6 592/1/6 594/1/6
f 594/1/6 592/1/6 595/1/6
f 595/2/6 596/2/6 597/2/6
f 597/2/6 596/2/6 598/2/6
f 599/2/6 600/2/6 602/2/6
f 602/2/6 600/2/6 603/2/6
f 601/1/6 602/1/6 604/1/6
f 604/1/6 602/1/6 605/1/6
f 606/1/6 607/1/6 608/1/6
f 608/1/6 607/1/6 609/1/6
f 609/2/6 610/2/6 611/2/6
f 611/2/6 610/2/6 612/2/6
f 613/2/6 614/2/6 615/2/6
f 615/2/6 614/2/6 616/2/6
f 617/2/6 618/2/6 619/2/6
f 619/2/6 618/2/6 620/2/6
f 621/2/6 622/2/6 623/2/6
f 623/2/6 622/2/6 624/2/6
